<svg width="240" height="83" viewBox="0 0 240 83" fill="none" xmlns="http://www.w3.org/2000/svg">
<path d="M6.71293 22.5815C0.876547 19.2123 -1.03115 11.6622 2.49845 5.90192C5.89524 0.358355 13.0732 -1.45156 18.6708 1.8241L53.1677 21.2354V48.7518C38.7062 40.6049 17.9501 28.8169 10.0558 24.3696C8.04683 23.2378 6.71293 22.5815 6.71293 22.5815Z" fill="#2B50E6"/>
<path d="M11.5207 59.5851C6.82009 56.1982 7.14174 49.1031 12.1295 46.1571L53.1313 21.2354V48.8991L22.0905 67.201L11.5207 59.5851Z" fill="#8C1ECB"/>
<path d="M0.966797 58.3487C0.966797 57.3765 0.966797 56.8904 1.01835 56.4376C1.26817 54.2431 2.41061 52.2484 4.17697 50.9224C4.54144 50.6488 4.96072 50.4029 5.79926 49.9109L22.9273 39.8623V71.8253C22.9273 77.8895 18.0113 82.8055 11.9471 82.8055C5.88282 82.8055 0.966797 77.8895 0.966797 71.8253V58.3487Z" fill="#2B50E6"/>
<path d="M65.168 52.2973V21.9246C65.168 21.0099 65.9113 20.2686 66.8284 20.2686H77.6564C80.2148 20.2686 82.361 20.7273 84.0957 21.645C85.841 22.5623 87.1581 23.8239 88.047 25.4294C88.9466 27.0246 89.3965 28.8387 89.3965 30.8717C89.3965 32.9256 88.9466 34.7504 88.047 36.3456C87.1471 37.9405 85.8193 39.1971 84.0629 40.1145C82.3069 41.0215 80.1443 41.4752 77.5748 41.4752H69.2984V36.7051H76.7618C78.258 36.7051 79.4829 36.4551 80.4369 35.9546C81.391 35.4541 82.0954 34.766 82.5507 33.8901C83.0171 33.0142 83.2498 32.0083 83.2498 30.8717C83.2498 29.7355 83.0171 28.7346 82.5507 27.869C82.0954 27.0037 81.3852 26.3311 80.4205 25.8516C79.4665 25.3617 78.2363 25.1166 76.7294 25.1166H71.2007V46.2803C71.2007 49.6034 68.4998 52.2973 65.168 52.2973Z" fill="#181818"/>
<path d="M91.502 52.2972V33.9683C91.502 30.8242 94.0573 28.2755 97.2097 28.2755V32.2792H97.4699C97.9252 30.8926 98.7055 29.824 99.8112 29.0732C100.928 28.312 102.202 27.9316 103.633 27.9316C103.958 27.9316 104.321 27.9472 104.722 27.9784C105.134 27.9993 105.476 28.0358 105.746 28.0882V33.2957C105.497 33.2125 105.101 33.1395 104.56 33.0768C104.028 33.0039 103.513 32.9674 103.015 32.9674C101.941 32.9674 100.977 33.1916 100.12 33.64C99.2747 34.0778 98.608 34.6877 98.1203 35.4697C97.6322 36.2517 97.3884 37.1535 97.3884 38.1753V46.4262C97.3884 49.6688 94.753 52.2972 91.502 52.2972Z" fill="#181818"/>
<path d="M119.685 52.7666C117.181 52.7666 115.018 52.2662 113.197 51.2653C111.387 50.2537 109.994 48.8257 109.018 46.98C108.043 45.1241 107.555 42.9398 107.555 40.4273C107.555 37.9565 108.043 35.7879 109.018 33.9213C110.005 32.0449 111.381 30.5853 113.149 29.5426C114.916 28.4896 116.992 27.9629 119.376 27.9629C120.916 27.9629 122.368 28.2027 123.734 28.6822C125.111 29.1515 126.325 29.8815 127.377 30.8718C128.439 31.8625 129.274 33.1241 129.881 34.6566C130.488 36.1789 130.791 37.993 130.791 40.099V40.099C130.791 41.0576 130.014 41.8348 129.056 41.8348H110.319V38.0188H125.149C125.138 36.9347 124.894 35.9703 124.417 35.1255C123.94 34.2709 123.274 33.5983 122.417 33.1081C121.572 32.6183 120.585 32.3732 119.458 32.3732C118.254 32.3732 117.197 32.6548 116.287 33.2179C115.376 33.7704 114.666 34.5 114.157 35.4071C113.658 36.3039 113.403 37.2892 113.392 38.3631V41.6942C113.392 43.0911 113.658 44.29 114.189 45.2909C114.721 46.2815 115.463 47.0427 116.417 47.5743C117.371 48.0957 118.487 48.3563 119.767 48.3563C120.623 48.3563 121.398 48.2416 122.092 48.0121C122.786 47.7723 123.388 47.4231 123.897 46.9644C124.808 46.1444 125.901 45.3517 127.121 45.4836L127.263 45.4988C129.001 45.6869 130.198 47.42 129.15 48.8158C128.969 49.0567 128.774 49.2893 128.564 49.5135C127.599 50.5459 126.363 51.3485 124.856 51.9219C123.349 52.4851 121.626 52.7666 119.685 52.7666Z" fill="#181818"/>
<path d="M145.039 52.7195C143.077 52.7195 141.321 52.2346 139.771 51.2652C138.22 50.2954 136.996 48.8879 136.096 47.0426C135.196 45.197 134.746 42.9557 134.746 40.3178C134.746 37.6487 135.201 35.3968 136.112 33.5618C137.033 31.7165 138.275 30.3245 139.835 29.3859C141.397 28.4375 143.136 27.9628 145.055 27.9628C146.519 27.9628 147.722 28.2026 148.665 28.6822C149.609 29.1515 150.356 29.7196 150.909 30.3869C151.462 31.0439 151.89 31.664 152.194 32.2481H152.438V26.1556C152.438 22.9043 155.08 20.2686 158.34 20.2686V46.5236C158.34 49.7121 155.749 52.2973 152.551 52.2973V48.5125H152.194C151.89 49.0965 151.451 49.7167 150.876 50.3737C150.302 51.0201 149.543 51.5726 148.6 52.0313C147.657 52.4903 146.47 52.7195 145.039 52.7195ZM146.681 48.0747C147.928 48.0747 148.991 47.7517 149.868 47.1049C150.747 46.4483 151.413 45.5359 151.869 44.3682C152.324 43.2005 152.551 41.8401 152.551 40.2866C152.551 38.7332 152.324 37.383 151.869 36.2358C151.424 35.089 150.763 34.1979 149.885 33.5618C149.018 32.9256 147.95 32.6076 146.681 32.6076C145.37 32.6076 144.275 32.9363 143.397 33.5929C142.518 34.2499 141.857 35.157 141.413 36.3141C140.969 37.4716 140.746 38.7955 140.746 40.2866C140.746 41.788 140.969 43.1275 141.413 44.3059C141.868 45.4736 142.535 46.3962 143.413 47.0738C144.302 47.7411 145.391 48.0747 146.681 48.0747Z" fill="#181818"/>
<path d="M164.612 52.2967V34.146C164.612 30.9039 167.247 28.275 170.498 28.275V46.4257C170.498 49.6683 167.862 52.2967 164.612 52.2967ZM167.571 24.866C166.638 24.866 165.836 24.5689 165.164 23.9746C164.492 23.3696 164.156 22.6453 164.156 21.8006C164.156 20.9457 164.492 20.2211 165.164 19.6268C165.836 19.0221 166.638 18.7197 167.571 18.7197C168.514 18.7197 169.316 19.0221 169.978 19.6268C170.65 20.2211 170.986 20.9457 170.986 21.8006C170.986 22.6453 170.65 23.3696 169.978 23.9746C169.316 24.5689 168.514 24.866 167.571 24.866Z" fill="#181818"/>
<path d="M187.414 61.8057C185.3 61.8057 183.485 61.5294 181.967 60.9769C180.449 60.4347 179.23 59.7051 178.308 58.7874C178.191 58.6715 178.079 58.5537 177.972 58.4343C176.834 57.1731 177.806 55.4076 179.463 55.0216L179.988 54.8992C180.987 54.6663 182.009 55.1671 182.731 55.8944C183.186 56.3633 183.799 56.7494 184.568 57.0515C185.349 57.3643 186.33 57.5208 187.512 57.5208C189.181 57.5208 190.563 57.1298 191.658 56.3478C192.753 55.5764 193.301 54.3045 193.301 52.5318V47.9809H193.008C192.704 48.565 192.26 49.1642 191.674 49.7795C191.1 50.3947 190.336 50.9107 189.382 51.3276C188.438 51.7448 187.251 51.9534 185.82 51.9534C183.902 51.9534 182.162 51.5206 180.601 50.6554C179.05 49.7795 177.815 48.4761 176.893 46.7455C175.983 45.0044 175.527 42.8255 175.527 40.2084C175.527 37.5704 175.983 35.3448 176.893 33.5307C177.815 31.7059 179.056 30.3246 180.617 29.386C182.178 28.4375 183.918 27.9629 185.837 27.9629C187.3 27.9629 188.503 28.2027 189.447 28.6822C190.4 29.1515 191.159 29.7196 191.723 30.3869C192.287 31.0439 192.715 31.6641 193.008 32.2482H193.333C193.333 30.0544 195.116 28.2756 197.316 28.2756H199.138V52.6884C199.138 54.7423 198.629 56.4416 197.61 57.7864C196.591 59.1316 195.198 60.1379 193.431 60.8048C191.663 61.4721 189.658 61.8057 187.414 61.8057ZM187.463 47.5116C188.71 47.5116 189.772 47.2198 190.65 46.6361C191.528 46.052 192.195 45.213 192.65 44.1182C193.105 43.0234 193.333 41.7098 193.333 40.1772C193.333 38.6652 193.105 37.3413 192.65 36.2047C192.206 35.0685 191.544 34.1873 190.666 33.5618C189.799 32.9257 188.731 32.6076 187.463 32.6076C186.151 32.6076 185.056 32.9363 184.178 33.593C183.3 34.25 182.639 35.1517 182.194 36.2986C181.75 37.4352 181.528 38.7279 181.528 40.1772C181.528 41.6471 181.75 42.9349 182.194 44.0399C182.65 45.1347 183.317 45.9897 184.194 46.6046C185.083 47.2095 186.173 47.5116 187.463 47.5116Z" fill="#181818"/>
<path d="M211.054 20.2686V46.4263C211.054 49.6688 208.419 52.2973 205.168 52.2973V26.1396C205.168 22.8971 207.804 20.2686 211.054 20.2686Z" fill="#181818"/>
<path d="M228.169 52.7666C225.665 52.7666 223.503 52.2662 221.681 51.2653C219.871 50.2537 218.478 48.8257 217.502 46.98C216.527 45.1241 216.039 42.9398 216.039 40.4273C216.039 37.9565 216.527 35.7879 217.502 33.9213C218.489 32.0449 219.866 30.5853 221.633 29.5426C223.4 28.4896 225.476 27.9629 227.861 27.9629C229.4 27.9629 230.853 28.2027 232.219 28.6822C233.595 29.1515 234.809 29.8815 235.861 30.8718C236.923 31.8625 237.758 33.1241 238.365 34.6566C238.972 36.1789 239.275 37.993 239.275 40.099V40.099C239.275 41.0576 238.498 41.8348 237.54 41.8348H218.803V38.0188H233.633C233.622 36.9347 233.378 35.9703 232.901 35.1255C232.424 34.2709 231.758 33.5983 230.901 33.1081C230.056 32.6183 229.069 32.3732 227.942 32.3732C226.739 32.3732 225.682 32.6548 224.771 33.2179C223.86 33.7704 223.15 34.5 222.641 35.4071C222.142 36.3039 221.887 37.2892 221.877 38.3631V41.6942C221.877 43.0911 222.142 44.29 222.673 45.2909C223.205 46.2815 223.947 47.0427 224.901 47.5743C225.855 48.0957 226.971 48.3563 228.251 48.3563C229.107 48.3563 229.882 48.2416 230.576 48.0121C231.27 47.7723 231.872 47.4231 232.381 46.9644C233.292 46.1444 234.386 45.3517 235.606 45.4836L235.747 45.4988C237.485 45.6869 238.682 47.42 237.634 48.8158C237.453 49.0567 237.258 49.2893 237.048 49.5135C236.083 50.5459 234.847 51.3485 233.34 51.9219C231.833 52.4851 230.11 52.7666 228.169 52.7666Z" fill="#181818"/>
<path d="M67.1467 79.8057H65.516L69.18 69.6238H70.9549L74.619 79.8057H72.9883L70.1097 71.4733H70.0302L67.1467 79.8057ZM67.4201 75.8184H72.7099V77.1111H67.4201V75.8184ZM77.4565 75.2716V79.8057H75.97V72.1693H77.3968V73.4122H77.4913C77.667 73.0078 77.9421 72.683 78.3166 72.4378C78.6944 72.1925 79.17 72.0699 79.7434 72.0699C80.2638 72.0699 80.7195 72.1792 81.1106 72.398C81.5017 72.6134 81.805 72.9349 82.0204 73.3625C82.2359 73.79 82.3436 74.3187 82.3436 74.9484V79.8057H80.8571V75.1274C80.8571 74.5739 80.7129 74.1414 80.4245 73.8298C80.1362 73.5149 79.7401 73.3575 79.2363 73.3575C78.8916 73.3575 78.585 73.4321 78.3166 73.5812C78.0514 73.7304 77.841 73.9491 77.6852 74.2375C77.5327 74.5225 77.4565 74.8672 77.4565 75.2716ZM88.1616 79.8057V69.6238H94.5451V70.9463H89.6978V74.0486H94.212V75.366H89.6978V78.4832H94.6048V79.8057H88.1616ZM102.2 74.0336L100.853 74.2723C100.796 74.0999 100.707 73.9359 100.584 73.7801C100.465 73.6243 100.303 73.4967 100.097 73.3973C99.8916 73.2979 99.6348 73.2481 99.3265 73.2481C98.9056 73.2481 98.5543 73.3426 98.2725 73.5315C97.9908 73.7171 97.85 73.9574 97.85 74.2524C97.85 74.5076 97.9444 74.7131 98.1333 74.8689C98.3223 75.0247 98.6272 75.1523 99.0481 75.2517L100.261 75.5301C100.964 75.6925 101.488 75.9427 101.832 76.2808C102.177 76.6189 102.349 77.058 102.349 77.5983C102.349 78.0557 102.217 78.4633 101.952 78.8213C101.69 79.1759 101.323 79.4543 100.853 79.6565C100.385 79.8587 99.8436 79.9598 99.2271 79.9598C98.372 79.9598 97.6743 79.7775 97.1341 79.4129C96.5938 79.045 96.2624 78.523 96.1397 77.8469L97.5765 77.6281C97.666 78.0026 97.85 78.286 98.1284 78.4782C98.4068 78.6672 98.7697 78.7616 99.2172 78.7616C99.7044 78.7616 100.094 78.6605 100.385 78.4584C100.677 78.2529 100.823 78.0026 100.823 77.7077C100.823 77.469 100.733 77.2685 100.555 77.1061C100.379 76.9437 100.109 76.8211 99.7441 76.7382L98.4515 76.4548C97.7389 76.2924 97.2119 76.0339 96.8706 75.6792C96.5325 75.3246 96.3635 74.8755 96.3635 74.3319C96.3635 73.8812 96.4894 73.4868 96.7413 73.1487C96.9932 72.8106 97.3412 72.5471 97.7853 72.3582C98.2295 72.166 98.7382 72.0699 99.3116 72.0699C100.137 72.0699 100.787 72.2488 101.26 72.6068C101.734 72.9614 102.048 73.4371 102.2 74.0336ZM103.984 82.6693V72.1693H105.435V73.4072H105.56C105.646 73.2481 105.77 73.0642 105.933 72.8554C106.095 72.6466 106.32 72.4643 106.609 72.3085C106.897 72.1494 107.278 72.0699 107.752 72.0699C108.369 72.0699 108.919 72.2256 109.403 72.5372C109.887 72.8488 110.266 73.2979 110.541 73.8845C110.82 74.4711 110.959 75.1771 110.959 76.0024C110.959 76.8277 110.821 77.5353 110.546 78.1253C110.271 78.7119 109.893 79.1643 109.413 79.4825C108.932 79.7974 108.384 79.9548 107.767 79.9548C107.303 79.9548 106.924 79.8769 106.629 79.7211C106.337 79.5654 106.108 79.3831 105.942 79.1743C105.777 78.9655 105.649 78.7799 105.56 78.6175H105.47V82.6693H103.984ZM105.44 75.9875C105.44 76.5244 105.518 76.9951 105.674 77.3994C105.83 77.8038 106.055 78.1203 106.35 78.349C106.645 78.5744 107.006 78.6871 107.434 78.6871C107.878 78.6871 108.249 78.5694 108.548 78.3341C108.846 78.0954 109.071 77.7723 109.224 77.3646C109.379 76.9569 109.457 76.4979 109.457 75.9875C109.457 75.4837 109.381 75.0313 109.229 74.6302C109.08 74.2292 108.854 73.9127 108.553 73.6807C108.254 73.4487 107.881 73.3327 107.434 73.3327C107.003 73.3327 106.638 73.4437 106.34 73.6657C106.045 73.8878 105.821 74.1977 105.669 74.5954C105.517 74.9932 105.44 75.4572 105.44 75.9875ZM115.915 79.9598C115.163 79.9598 114.515 79.799 113.972 79.4775C113.431 79.1527 113.014 78.697 112.719 78.1104C112.427 77.5204 112.281 76.8293 112.281 76.0372C112.281 75.255 112.427 74.5656 112.719 73.969C113.014 73.3724 113.425 72.9068 113.952 72.572C114.482 72.2372 115.102 72.0699 115.811 72.0699C116.242 72.0699 116.66 72.1411 117.064 72.2836C117.468 72.4262 117.831 72.6499 118.153 72.9548C118.474 73.2597 118.728 73.6558 118.913 74.143C119.099 74.6269 119.192 75.2152 119.192 75.9079V76.4349H113.121V75.3213H117.735C117.735 74.9302 117.656 74.5838 117.496 74.2822C117.337 73.9773 117.114 73.737 116.825 73.5613C116.54 73.3857 116.205 73.2979 115.821 73.2979C115.403 73.2979 115.039 73.4006 114.727 73.6061C114.419 73.8083 114.18 74.0734 114.011 74.4015C113.846 74.7264 113.763 75.0793 113.763 75.4605V76.3305C113.763 76.8409 113.852 77.2751 114.031 77.6331C114.214 77.991 114.467 78.2645 114.792 78.4534C115.117 78.639 115.496 78.7318 115.93 78.7318C116.212 78.7318 116.469 78.692 116.701 78.6125C116.933 78.5296 117.134 78.407 117.303 78.2446C117.472 78.0822 117.601 77.8817 117.69 77.643L119.097 77.8966C118.985 78.3109 118.782 78.6738 118.491 78.9854C118.202 79.2936 117.839 79.5339 117.402 79.7062C116.968 79.8753 116.472 79.9598 115.915 79.9598ZM120.841 79.8057V72.1693H122.278V73.3824H122.357C122.497 72.9714 122.742 72.6482 123.093 72.4129C123.448 72.1743 123.849 72.055 124.296 72.055C124.389 72.055 124.499 72.0583 124.624 72.0649C124.754 72.0715 124.855 72.0798 124.928 72.0898V73.5116C124.868 73.4951 124.762 73.4768 124.61 73.4569C124.457 73.4337 124.305 73.4221 124.152 73.4221C123.801 73.4221 123.488 73.4967 123.213 73.6459C122.941 73.7917 122.725 73.9955 122.566 74.2574C122.407 74.5159 122.328 74.8109 122.328 75.1423V79.8057H120.841ZM133.224 72.8405C133.128 72.5389 132.999 72.2687 132.836 72.0301C132.677 71.7881 132.487 71.5827 132.265 71.4136C132.042 71.2413 131.789 71.1104 131.504 71.0209C131.222 70.9314 130.912 70.8866 130.574 70.8866C130.001 70.8866 129.484 71.0341 129.023 71.3291C128.562 71.6241 128.198 72.0566 127.929 72.6267C127.664 73.1934 127.532 73.8878 127.532 74.7098C127.532 75.5351 127.666 76.2327 127.934 76.8028C128.203 77.3729 128.571 77.8054 129.038 78.1004C129.505 78.3954 130.037 78.5429 130.634 78.5429C131.187 78.5429 131.67 78.4302 132.081 78.2048C132.495 77.9794 132.815 77.6613 133.04 77.2503C133.269 76.836 133.383 76.3488 133.383 75.7886L133.781 75.8632H130.868V74.5954H134.87V75.7538C134.87 76.6089 134.687 77.3514 134.323 77.9811C133.962 78.6075 133.461 79.0914 132.821 79.4328C132.185 79.7742 131.456 79.9449 130.634 79.9449C129.712 79.9449 128.904 79.7327 128.208 79.3085C127.515 78.8843 126.975 78.2827 126.587 77.5038C126.199 76.7216 126.005 75.7936 126.005 74.7197C126.005 73.9077 126.118 73.1785 126.343 72.5322C126.569 71.8859 126.885 71.3374 127.293 70.8866C127.704 70.4326 128.186 70.0862 128.74 69.8476C129.297 69.6056 129.905 69.4846 130.564 69.4846C131.114 69.4846 131.627 69.5658 132.1 69.7282C132.578 69.8907 133.002 70.121 133.373 70.4193C133.748 70.7176 134.058 71.0722 134.303 71.4832C134.548 71.8909 134.714 72.3433 134.8 72.8405H133.224ZM136.7 79.8057V72.1693H138.137V73.3824H138.217C138.356 72.9714 138.601 72.6482 138.953 72.4129C139.307 72.1743 139.708 72.055 140.156 72.055C140.249 72.055 140.358 72.0583 140.484 72.0649C140.613 72.0715 140.714 72.0798 140.787 72.0898V73.5116C140.727 73.4951 140.621 73.4768 140.469 73.4569C140.316 73.4337 140.164 73.4221 140.012 73.4221C139.66 73.4221 139.347 73.4967 139.072 73.6459C138.8 73.7917 138.585 73.9955 138.426 74.2574C138.267 74.5159 138.187 74.8109 138.187 75.1423V79.8057H136.7ZM145.017 79.9598C144.301 79.9598 143.676 79.7957 143.142 79.4676C142.609 79.1395 142.194 78.6804 141.9 78.0905C141.605 77.5005 141.457 76.8111 141.457 76.0223C141.457 75.2301 141.605 74.5374 141.9 73.9442C142.194 73.3509 142.609 72.8902 143.142 72.5621C143.676 72.2339 144.301 72.0699 145.017 72.0699C145.733 72.0699 146.357 72.2339 146.891 72.5621C147.425 72.8902 147.839 73.3509 148.134 73.9442C148.429 74.5374 148.576 75.2301 148.576 76.0223C148.576 76.8111 148.429 77.5005 148.134 78.0905C147.839 78.6804 147.425 79.1395 146.891 79.4676C146.357 79.7957 145.733 79.9598 145.017 79.9598ZM145.022 78.7119C145.486 78.7119 145.87 78.5893 146.175 78.344C146.48 78.0988 146.705 77.7723 146.851 77.3646C147 76.9569 147.075 76.5078 147.075 76.0173C147.075 75.5301 147 75.0827 146.851 74.675C146.705 74.264 146.48 73.9342 146.175 73.6856C145.87 73.4371 145.486 73.3128 145.022 73.3128C144.554 73.3128 144.167 73.4371 143.858 73.6856C143.553 73.9342 143.326 74.264 143.177 74.675C143.031 75.0827 142.958 75.5301 142.958 76.0173C142.958 76.5078 143.031 76.9569 143.177 77.3646C143.326 77.7723 143.553 78.0988 143.858 78.344C144.167 78.5893 144.554 78.7119 145.022 78.7119ZM155.073 76.6388V72.1693H156.564V79.8057H155.103V78.4832H155.023C154.848 78.8909 154.566 79.2306 154.178 79.5024C153.794 79.7709 153.315 79.9051 152.741 79.9051C152.251 79.9051 151.817 79.7974 151.439 79.5819C151.064 79.3632 150.769 79.04 150.554 78.6125C150.342 78.1849 150.236 77.6563 150.236 77.0265V72.1693H151.722V76.8476C151.722 77.3679 151.866 77.7822 152.155 78.0905C152.443 78.3987 152.818 78.5528 153.278 78.5528C153.557 78.5528 153.833 78.4832 154.108 78.344C154.387 78.2048 154.617 77.9943 154.8 77.7126C154.985 77.4309 155.076 77.0729 155.073 76.6388ZM158.562 82.6693V72.1693H160.013V73.4072H160.138C160.224 73.2481 160.348 73.0642 160.511 72.8554C160.673 72.6466 160.898 72.4643 161.187 72.3085C161.475 72.1494 161.856 72.0699 162.33 72.0699C162.947 72.0699 163.497 72.2256 163.981 72.5372C164.465 72.8488 164.844 73.2979 165.119 73.8845C165.398 74.4711 165.537 75.1771 165.537 76.0024C165.537 76.8277 165.399 77.5353 165.124 78.1253C164.849 78.7119 164.471 79.1643 163.991 79.4825C163.51 79.7974 162.962 79.9548 162.345 79.9548C161.881 79.9548 161.502 79.8769 161.207 79.7211C160.915 79.5654 160.686 79.3831 160.521 79.1743C160.355 78.9655 160.227 78.7799 160.138 78.6175H160.048V82.6693H158.562ZM160.018 75.9875C160.018 76.5244 160.096 76.9951 160.252 77.3994C160.408 77.8038 160.633 78.1203 160.928 78.349C161.223 78.5744 161.585 78.6871 162.012 78.6871C162.456 78.6871 162.827 78.5694 163.126 78.3341C163.424 78.0954 163.649 77.7723 163.802 77.3646C163.958 76.9569 164.036 76.4979 164.036 75.9875C164.036 75.4837 163.959 75.0313 163.807 74.6302C163.658 74.2292 163.432 73.9127 163.131 73.6807C162.832 73.4487 162.46 73.3327 162.012 73.3327C161.581 73.3327 161.217 73.4437 160.918 73.6657C160.623 73.8878 160.4 74.1977 160.247 74.5954C160.095 74.9932 160.018 75.4572 160.018 75.9875ZM179.483 72.9349H177.932C177.873 72.6035 177.762 72.3118 177.599 72.0599C177.437 71.808 177.238 71.5943 177.003 71.4186C176.767 71.2429 176.504 71.1104 176.212 71.0209C175.924 70.9314 175.617 70.8866 175.292 70.8866C174.706 70.8866 174.18 71.0341 173.716 71.3291C173.256 71.6241 172.891 72.0566 172.623 72.6267C172.358 73.1968 172.225 73.8928 172.225 74.7148C172.225 75.5434 172.358 76.2427 172.623 76.8128C172.891 77.3828 173.257 77.8137 173.721 78.1054C174.185 78.397 174.707 78.5429 175.287 78.5429C175.609 78.5429 175.914 78.4998 176.202 78.4136C176.494 78.3241 176.757 78.1932 176.993 78.0209C177.228 77.8485 177.427 77.6381 177.589 77.3895C177.755 77.1376 177.869 76.8492 177.932 76.5244L179.483 76.5294C179.401 77.0299 179.24 77.4906 179.001 77.9115C178.766 78.3291 178.463 78.6904 178.091 78.9953C177.724 79.2969 177.303 79.5306 176.829 79.6963C176.355 79.862 175.838 79.9449 175.278 79.9449C174.396 79.9449 173.61 79.7361 172.921 79.3184C172.232 78.8975 171.688 78.296 171.29 77.5138C170.896 76.7316 170.699 75.7986 170.699 74.7148C170.699 73.6276 170.898 72.6946 171.295 71.9157C171.693 71.1336 172.237 70.5336 172.926 70.116C173.615 69.6951 174.399 69.4846 175.278 69.4846C175.818 69.4846 176.322 69.5625 176.789 69.7183C177.26 69.8708 177.682 70.0961 178.057 70.3944C178.431 70.6894 178.741 71.0507 178.986 71.4782C179.232 71.9025 179.397 72.3881 179.483 72.9349ZM184.419 79.9598C183.703 79.9598 183.078 79.7957 182.545 79.4676C182.011 79.1395 181.597 78.6804 181.302 78.0905C181.007 77.5005 180.859 76.8111 180.859 76.0223C180.859 75.2301 181.007 74.5374 181.302 73.9442C181.597 73.3509 182.011 72.8902 182.545 72.5621C183.078 72.2339 183.703 72.0699 184.419 72.0699C185.135 72.0699 185.76 72.2339 186.293 72.5621C186.827 72.8902 187.241 73.3509 187.536 73.9442C187.831 74.5374 187.979 75.2301 187.979 76.0223C187.979 76.8111 187.831 77.5005 187.536 78.0905C187.241 78.6804 186.827 79.1395 186.293 79.4676C185.76 79.7957 185.135 79.9598 184.419 79.9598ZM184.424 78.7119C184.888 78.7119 185.272 78.5893 185.577 78.344C185.882 78.0988 186.108 77.7723 186.254 77.3646C186.403 76.9569 186.477 76.5078 186.477 76.0173C186.477 75.5301 186.403 75.0827 186.254 74.675C186.108 74.264 185.882 73.9342 185.577 73.6856C185.272 73.4371 184.888 73.3128 184.424 73.3128C183.957 73.3128 183.569 73.4371 183.261 73.6856C182.956 73.9342 182.729 74.264 182.58 74.675C182.434 75.0827 182.361 75.5301 182.361 76.0173C182.361 76.5078 182.434 76.9569 182.58 77.3646C182.729 77.7723 182.956 78.0988 183.261 78.344C183.569 78.5893 183.957 78.7119 184.424 78.7119ZM189.638 79.8057V72.1693H191.065V73.4122H191.159C191.318 72.9913 191.579 72.6631 191.94 72.4278C192.301 72.1892 192.734 72.0699 193.237 72.0699C193.748 72.0699 194.175 72.1892 194.52 72.4278C194.868 72.6665 195.125 72.9946 195.291 73.4122H195.37C195.552 73.0045 195.843 72.6797 196.24 72.4378C196.638 72.1925 197.112 72.0699 197.662 72.0699C198.355 72.0699 198.92 72.287 199.357 72.7211C199.798 73.1553 200.019 73.8099 200.019 74.6849V79.8057H198.532V74.8241C198.532 74.3071 198.391 73.9326 198.11 73.7006C197.828 73.4685 197.491 73.3525 197.1 73.3525C196.616 73.3525 196.24 73.5017 195.972 73.8C195.703 74.095 195.569 74.4745 195.569 74.9385V79.8057H194.088V74.7297C194.088 74.3154 193.958 73.9823 193.7 73.7304C193.441 73.4785 193.105 73.3525 192.691 73.3525C192.409 73.3525 192.149 73.4271 191.91 73.5763C191.675 73.7221 191.484 73.9259 191.338 74.1878C191.196 74.4496 191.124 74.7529 191.124 75.0976V79.8057H189.638ZM202.011 82.6693V72.1693H203.463V73.4072H203.587C203.673 73.2481 203.797 73.0642 203.96 72.8554C204.122 72.6466 204.348 72.4643 204.636 72.3085C204.924 72.1494 205.306 72.0699 205.779 72.0699C206.396 72.0699 206.946 72.2256 207.43 72.5372C207.914 72.8488 208.293 73.2979 208.569 73.8845C208.847 74.4711 208.986 75.1771 208.986 76.0024C208.986 76.8277 208.849 77.5353 208.574 78.1253C208.298 78.7119 207.921 79.1643 207.44 79.4825C206.959 79.7974 206.411 79.9548 205.794 79.9548C205.33 79.9548 204.951 79.8769 204.656 79.7211C204.364 79.5654 204.136 79.3831 203.97 79.1743C203.804 78.9655 203.676 78.7799 203.587 78.6175H203.498V82.6693H202.011ZM203.468 75.9875C203.468 76.5244 203.546 76.9951 203.701 77.3994C203.857 77.8038 204.083 78.1203 204.377 78.349C204.672 78.5744 205.034 78.6871 205.461 78.6871C205.905 78.6871 206.277 78.5694 206.575 78.3341C206.873 78.0954 207.099 77.7723 207.251 77.3646C207.407 76.9569 207.485 76.4979 207.485 75.9875C207.485 75.4837 207.408 75.0313 207.256 74.6302C207.107 74.2292 206.882 73.9127 206.58 73.6807C206.282 73.4487 205.909 73.3327 205.461 73.3327C205.03 73.3327 204.666 73.4437 204.368 73.6657C204.073 73.8878 203.849 74.1977 203.696 74.5954C203.544 74.9932 203.468 75.4572 203.468 75.9875ZM212.874 79.9747C212.39 79.9747 211.953 79.8852 211.561 79.7062C211.17 79.5239 210.86 79.2604 210.632 78.9157C210.406 78.5711 210.294 78.1485 210.294 77.648C210.294 77.2171 210.377 76.8625 210.542 76.5841C210.708 76.3057 210.932 76.0853 211.213 75.9229C211.495 75.7604 211.81 75.6378 212.158 75.555C212.506 75.4721 212.861 75.4091 213.222 75.366C213.679 75.313 214.051 75.2699 214.336 75.2368C214.621 75.2003 214.828 75.1423 214.957 75.0628C215.086 74.9832 215.151 74.854 215.151 74.675V74.6402C215.151 74.206 215.028 73.8696 214.783 73.6309C214.541 73.3923 214.18 73.273 213.699 73.273C213.199 73.273 212.804 73.384 212.516 73.6061C212.231 73.8248 212.034 74.0684 211.924 74.3369L210.527 74.0187C210.693 73.5547 210.935 73.1802 211.253 72.8952C211.575 72.6068 211.944 72.398 212.362 72.2687C212.779 72.1362 213.219 72.0699 213.679 72.0699C213.984 72.0699 214.307 72.1063 214.649 72.1792C214.993 72.2488 215.315 72.3781 215.613 72.567C215.915 72.7559 216.162 73.0261 216.354 73.3774C216.546 73.7254 216.642 74.1778 216.642 74.7346V79.8057H215.191V78.7616H215.131C215.035 78.9539 214.891 79.1428 214.699 79.3284C214.506 79.514 214.259 79.6681 213.958 79.7907C213.656 79.9134 213.295 79.9747 212.874 79.9747ZM213.197 78.7815C213.608 78.7815 213.959 78.7003 214.251 78.5379C214.546 78.3755 214.77 78.1634 214.922 77.9015C215.078 77.6364 215.156 77.353 215.156 77.0514V76.067C215.103 76.1201 215 76.1698 214.848 76.2162C214.699 76.2593 214.528 76.2974 214.336 76.3305C214.143 76.3604 213.956 76.3885 213.774 76.415C213.592 76.4382 213.439 76.4581 213.316 76.4747C213.028 76.5112 212.765 76.5725 212.526 76.6586C212.291 76.7448 212.102 76.8691 211.959 77.0315C211.82 77.1906 211.75 77.4027 211.75 77.6679C211.75 78.0358 211.886 78.3142 212.158 78.5031C212.43 78.6887 212.776 78.7815 213.197 78.7815ZM220.109 75.2716V79.8057H218.622V72.1693H220.049V73.4122H220.144C220.319 73.0078 220.594 72.683 220.969 72.4378C221.347 72.1925 221.822 72.0699 222.396 72.0699C222.916 72.0699 223.372 72.1792 223.763 72.398C224.154 72.6134 224.457 72.9349 224.673 73.3625C224.888 73.79 224.996 74.3187 224.996 74.9484V79.8057H223.509V75.1274C223.509 74.5739 223.365 74.1414 223.077 73.8298C222.789 73.5149 222.392 73.3575 221.889 73.3575C221.544 73.3575 221.237 73.4321 220.969 73.5812C220.704 73.7304 220.493 73.9491 220.338 74.2375C220.185 74.5225 220.109 74.8672 220.109 75.2716ZM227.656 82.6693C227.434 82.6693 227.231 82.6511 227.049 82.6146C226.867 82.5815 226.731 82.545 226.642 82.5052L226.999 81.2872C227.271 81.3601 227.513 81.3916 227.725 81.3817C227.937 81.3717 228.125 81.2922 228.287 81.143C228.453 80.9939 228.599 80.7503 228.725 80.4122L228.909 79.9051L226.115 72.1693H227.705L229.639 78.0954H229.719L231.653 72.1693H233.249L230.102 80.8248C229.956 81.2226 229.77 81.559 229.545 81.8341C229.32 82.1125 229.051 82.3213 228.74 82.4605C228.428 82.5997 228.067 82.6693 227.656 82.6693Z" fill="#181818" fill-opacity="0.7"/>
</svg>
